<?xml version="1.0" standalone="no"?>
<!DOCTYPE svg PUBLIC "-//W3C//DTD SVG 20010904//EN"
 "http://www.w3.org/TR/2001/REC-SVG-20010904/DTD/svg10.dtd">
<svg version="1.0" xmlns="http://www.w3.org/2000/svg"
 width="400.000000pt" height="400.000000pt" viewBox="0 0 400.000000 400.000000"
 preserveAspectRatio="xMidYMid meet">
<metadata>
Created by potrace 1.14, written by Peter Selinger 2001-2017
</metadata>
<g transform="translate(0.000000,400.000000) scale(0.100000,-0.100000)"
fill="#000000" stroke="none">
<path d="M2220 3390 l0 -50 -165 0 -165 0 0 -60 0 -60 -164 0 -165 0 -3 -52
-3 -53 -57 -3 -58 -3 0 -54 0 -55 -50 0 -50 0 0 -110 0 -110 -60 0 -60 0 0
-280 0 -280 60 0 60 0 0 -55 0 -55 50 0 50 0 0 -165 0 -165 -50 0 -50 0 0
-110 0 -110 -60 0 -60 0 0 -335 0 -335 60 0 60 0 0 -55 0 -55 50 0 50 0 0
-115 0 -115 -720 0 -720 0 0 -275 0 -275 2000 0 2000 0 0 275 0 275 -478 0
c-263 0 -587 3 -720 7 l-242 6 0 49 0 48 -60 0 -60 0 2 278 3 277 58 3 57 3 0
109 0 110 330 0 330 0 0 60 0 60 60 0 60 0 0 165 0 165 -60 0 -60 0 0 335 0
335 60 0 60 0 0 50 0 50 -60 0 -60 0 0 60 0 60 -220 0 -220 0 0 -60 0 -60 -60
0 -60 0 0 170 0 170 -50 0 -50 0 0 170 0 170 -60 0 -60 0 0 50 0 50 -110 0
-110 0 0 -50z m120 -670 l0 -60 -340 0 -340 0 0 60 0 60 340 0 340 0 0 -60z
m880 -110 l0 -50 -55 0 -55 0 0 -60 0 -60 -110 0 -110 0 0 60 0 60 -55 0 -55
0 0 -335 0 -335 -110 0 -110 0 0 55 0 55 50 0 50 0 0 280 0 280 60 0 60 0 0
50 0 50 220 0 220 0 0 -50z m-1440 -160 l0 -110 -60 0 -60 0 0 110 0 110 60 0
60 0 0 -110z m220 0 l0 -110 55 0 55 0 0 110 0 110 55 0 55 0 0 -110 0 -110
-50 0 -50 0 0 -60 0 -60 -60 0 -60 0 0 60 0 60 -55 0 -55 0 0 110 0 110 55 0
55 0 0 -110z m450 0 l0 -110 -55 0 -55 0 0 110 0 110 55 0 55 0 0 -110z
m-1010 -120 l0 -110 -50 0 -50 0 0 110 0 110 50 0 50 0 0 -110z m1670 -160 l0
-170 -110 0 -110 0 0 170 0 170 110 0 110 0 0 -170z m-220 -450 l0 -60 110 0
110 0 0 60 0 60 55 0 55 0 0 -60 0 -60 -56 0 -56 0 4 -50 3 -50 -277 0 -278 0
0 50 0 50 110 0 110 0 0 60 0 60 55 0 55 0 0 -60z m-1340 -720 l0 -110 -105 0
-105 0 0 110 0 110 105 0 105 0 0 -110z m325 -100 c3 -6 -1 -7 -9 -4 -18 7
-21 14 -7 14 6 0 13 -4 16 -10z m372 -216 c-3 -3 -12 -4 -19 -1 -8 3 -5 6 6 6
11 1 17 -2 13 -5z m-137 -74 l0 -50 -110 0 -110 0 0 50 0 50 110 0 110 0 0
-50z m324 42 c2 -4 -4 -8 -14 -8 -10 0 -16 4 -14 8 3 4 9 8 14 8 5 0 11 -4 14
-8z m-38 -202 c8 0 14 5 14 11 0 6 7 3 16 -5 10 -11 34 -16 75 -16 l59 0 0
-50 0 -50 -170 0 -170 0 0 55 0 55 75 0 c64 0 75 2 76 18 1 16 2 16 6 0 2 -10
11 -18 19 -18z m-616 -55 l0 -55 -170 0 -170 0 0 50 0 49 63 4 c34 2 110 4
170 5 l107 2 0 -55z"/>
<path d="M2780 3280 l0 -61 53 3 52 3 0 55 0 55 -52 3 -53 3 0 -61z"/>
</g>
</svg>
